<svg xmlns="http://www.w3.org/2000/svg" viewBox="0 0 628.2 158.3"><path d="M340.1 106.5c2.4 29.8 48.9 24.7 69 18.3l5 25.8c-47 18-109.8 6.3-109.8-54.9 0-81.5 116.5-90.4 116.5-4.2 0 6.5-.7 12.3-1.2 15h-79.5zm45.4-26.1c0-33.7-45.5-34.1-45.1 0h45.1zM460 67c0-15.5 28.9-10.5 37.6-7l2.7-25.8c-29.3-9.1-74.6-2.3-74.6 36.2-.6 38 55.3 32.8 55.3 50.9 0 19.1-43.8 9.3-53.4 3.5l-5 25.8c32.6 14.4 94.4 11.2 92.7-32C514.9 76.7 460 84.1 460 67zm43.6-7h17.9v51.3c0 26.9 6.8 47 36.6 47 10.8 0 19.7-2.7 24.7-4.7v-28.8c-17.8 3.3-26.5 4.5-26.5-19.3V0h-34.8v34.1h-15.2L503.6 60m-396.9 95.8L137 34.2l8.1 124.1h34.1L168.8 0h-53.2l-26 106.4L63.5 0H10.4L0 158.3h34.1l8.1-124.1 30.3 121.6h34.2M590.2 46.7l-6.9-12.6h-20.7V60h20.3l7.3-13.3z" fill="#0061af"/><path d="M217.1 106.5c2.4 29.8 48.9 24.7 69 18.3l5 25.8c-47 18-109.8 6.3-109.8-54.9 0-81.5 116.5-90.4 116.5-4.2 0 6.5-.7 12.3-1.2 15h-79.5zm45.4-26.1c0-33.7-45.5-34.1-45.1 0h45.1zM602.1 0h-25.8l25.8 46.7-25.8 46.7h25.8l26.1-46.7L602.1 0z" fill="#e60033"/></svg>