<svg width="70" height="28" fill="none" xmlns="http://www.w3.org/2000/svg"><path d="M2.999 6.722v8.426h1.483c1.304 0 2.32-.391 3.063-1.163.741-.782 1.112-1.84 1.112-3.182 0-1.268-.37-2.262-1.102-2.992-.73-.73-1.759-1.089-3.094-1.089H3zM0 17.58V4.291h4.715c4.737 0 7.1 2.157 7.1 6.48 0 2.072-.646 3.722-1.94 4.958-1.292 1.237-3.009 1.85-5.16 1.85H0zm19.19-5.708c0-1.364-.551-2.04-1.653-2.04-.466 0-.88.19-1.219.581-.339.391-.55.877-.625 1.459h3.497zm2.713 1.797h-6.21c.096 1.374.964 2.072 2.607 2.072 1.049 0 1.97-.243 2.755-.74v2.114c-.88.466-2.024.709-3.433.709-1.537 0-2.724-.423-3.582-1.28-.848-.845-1.271-2.03-1.271-3.552 0-1.575.455-2.822 1.377-3.742.911-.92 2.045-1.385 3.38-1.385 1.389 0 2.459.413 3.222 1.237.763.825 1.133 1.935 1.133 3.351v1.216h.022zm4.302 3.911H23.27V3.532h2.935v14.05zm5.033 0h-2.935V8.086h2.935v9.494zM29.787 6.585c-.498 0-.901-.148-1.22-.444a1.419 1.419 0 01-.476-1.078c0-.434.159-.793.477-1.078.318-.275.72-.413 1.218-.413s.912.138 1.22.413c.317.274.465.634.465 1.078 0 .444-.159.814-.466 1.089-.307.296-.72.433-1.218.433zm12.599 1.503l-3.54 9.493h-3.348l-3.37-9.493h3.137l1.653 5.846c.19.666.297 1.226.328 1.691h.043c.042-.433.159-.983.339-1.628l1.695-5.899h3.063v-.01zm6.517 3.784c0-1.364-.551-2.04-1.654-2.04-.466 0-.879.19-1.218.581-.34.391-.551.877-.625 1.459h3.497zm2.723 1.797h-6.21c.096 1.374.965 2.072 2.607 2.072 1.05 0 1.971-.243 2.755-.74v2.114c-.88.466-2.024.709-3.433.709-1.537 0-2.723-.423-3.582-1.28-.847-.845-1.271-2.03-1.271-3.552 0-1.575.455-2.822 1.377-3.742.912-.92 2.045-1.385 3.38-1.385 1.389 0 2.459.413 3.222 1.237.763.825 1.134 1.935 1.134 3.351v1.216h.02zm7.565-2.938c-.35-.19-.763-.285-1.24-.285-.635 0-1.133.232-1.493.697-.36.466-.54 1.1-.54 1.903v4.535h-2.936V8.088h2.935v1.766h.042c.467-1.29 1.304-1.924 2.512-1.924.307 0 .55.031.72.116v2.685zM70 8.088l-3.868 10.254c-.932 2.463-2.331 3.7-4.196 3.7-.71 0-1.293-.084-1.76-.243v-2.336a2.45 2.45 0 001.273.338c.752 0 1.282-.36 1.578-1.067l.498-1.174-3.867-9.472h3.253l1.77 5.772c.116.36.2.782.264 1.269h.043a8.49 8.49 0 01.307-1.248l1.79-5.793H70zM13.553 26.683c-.752.423-1.526.634-2.32.634-.997 0-1.791-.338-2.406-1.004-.615-.677-.922-1.554-.922-2.643 0-1.1.329-2.02.996-2.76.657-.74 1.547-1.11 2.65-1.11.635 0 1.26.128 1.864.381v.55c-.657-.317-1.303-.476-1.939-.476-.922 0-1.653.318-2.215.941-.561.624-.837 1.427-.837 2.39 0 1.025.265 1.818.784 2.4.52.58 1.23.866 2.12.866.657 0 1.229-.137 1.727-.423v-2.4h-1.717v-.454h2.226v3.108h-.011zm1.981-6.302v3.108h1.25c.552 0 .997-.148 1.325-.433.329-.286.488-.687.488-1.195 0-.465-.149-.824-.445-1.089-.297-.264-.721-.39-1.261-.39h-1.357zm3.222 6.808l-.975-2.125c-.202-.444-.403-.73-.604-.888-.202-.148-.456-.222-.753-.222h-.9v3.235h-.498v-7.273h2.023c.647 0 1.145.17 1.516.518.37.349.55.803.55 1.374 0 .529-.147.962-.455 1.311-.297.35-.72.582-1.26.677v.02c.285.117.571.466.847 1.047l1.08 2.316h-.571v.01zm4.895-6.933c-.848 0-1.547.307-2.087.92-.551.613-.816 1.417-.816 2.4 0 1.004.254 1.797.773 2.389.52.592 1.208.888 2.077.888.901 0 1.61-.296 2.14-.878.53-.581.785-1.406.785-2.452 0-1.026-.254-1.83-.774-2.41-.519-.571-1.218-.857-2.098-.857zm-.053 7.062c-1.028 0-1.854-.338-2.458-1.026-.615-.687-.922-1.564-.922-2.664 0-1.162.318-2.082.943-2.79.625-.698 1.484-1.047 2.575-1.047.985 0 1.78.338 2.384 1.004.604.666.912 1.554.912 2.643 0 1.205-.308 2.146-.933 2.844s-1.462 1.036-2.5 1.036zm9.675-3.035c0 2.02-.859 3.034-2.596 3.034-1.643 0-2.47-.972-2.47-2.918v-4.471h.499v4.408c0 1.692.689 2.527 2.066 2.527 1.335 0 1.992-.825 1.992-2.463v-4.472h.498v4.355h.01zm2.077-3.901v3.436h1.038c.657 0 1.155-.159 1.494-.465.34-.317.509-.75.509-1.322 0-1.088-.625-1.638-1.886-1.638H35.35v-.01zm0 3.901v2.918h-.498v-7.273h1.759c.752 0 1.324.169 1.716.518.392.349.594.856.594 1.522 0 .677-.223 1.226-.668 1.67-.445.434-1.06.656-1.854.656h-1.05v-.01z" fill="#fff"/><path d="M44.293 6.3h-4.991l2.68-3.15L39.303 0h4.99l2.682 3.15-2.681 3.15z" fill="#FDCE00"/><path d="M51.965 6.3h-4.99l2.68-3.15L46.975 0h4.99l2.68 3.15-2.68 3.15z" fill="#B2B2B3"/><path d="M59.647 6.3h-5.001l2.68-3.15L54.647 0h5.001l2.681 3.15-2.68 3.15z" fill="#3F53A1"/><path d="M67.32 6.3h-4.992l2.681-3.15L62.33 0h4.99L70 3.15 67.32 6.3z" fill="#95B51F"/></svg>