<svg version="1.1" id="Ebene_1" xmlns="http://www.w3.org/2000/svg" x="0" y="0" width="143.5" height="20" xml:space="preserve"><style>.st0{fill:#d40511}</style><path class="st0" d="M0 18.5h17.4l-1 1.4H0v-1.4zm143.5 1.4h-21.3l1.1-1.4h20.3v1.4zM0 15.9h19.4l-1.1 1.4H0v-1.4zm0-2.6h21.4l-1.1 1.4H0v-1.4zm143.5 4h-19.3l1.1-1.4h18.3v1.4zm-16.3-4h16.3v1.4h-17.4l1.1-1.4zM18.8 19.9L28 7.6h11.4c1.3 0 1.3.5.6 1.3-.6.8-1.7 2.3-2.3 3.1-.3.5-.9 1.2 1 1.2H54C52.8 15 48.6 20 41.2 20c-6-.1-22.4-.1-22.4-.1zm52.7-6.6l-5 6.7H53.4l5-6.7h13.1zm19.1 0l-5 6.7H72.4l5-6.7h13.2zm4.3 0s-1 1.3-1.4 1.9c-1.7 2.2-.2 4.8 5.2 4.8h21.2l5-6.7h-30z"/><path class="st0" d="M25.3 0l-4.6 6.1h25c1.3 0 1.3.5.6 1.3-.6.8-1.7 2.3-2.3 3.1-.3.4-.9 1.2 1 1.2h10.2s1.7-2.2 3-4.1c1.9-2.5.2-7.7-6.5-7.7-6 .1-26.4.1-26.4.1zm66.4 11.7H59.5L68.3 0h13.2l-5 6.7h5.9l5-6.7h13.2l-8.9 11.7zM118.8 0L110 11.7H96L104.8 0h14z"/></svg>